<svg version="1.1" id="Layer_1" xmlns="http://www.w3.org/2000/svg" xmlns:xlink="http://www.w3.org/1999/xlink" x="0px" y="0px"
	 width="100%" viewBox="0 0 500 500" enable-background="new 0 0 500 500" xml:space="preserve">
<path fill="#120200" opacity="1.000000" stroke="none" 
	d="
M243.000000,501.000000 
	C162.000015,501.000000 81.500038,501.000000 1.000043,501.000000 
	C1.000029,334.333405 1.000029,167.666779 1.000014,1.000133 
	C167.666565,1.000088 334.333130,1.000088 500.999756,1.000044 
	C500.999847,167.666519 500.999847,334.333038 500.999939,500.999786 
	C415.166656,501.000000 329.333344,501.000000 243.000000,501.000000 
M228.234253,286.135406 
	C226.129608,286.524445 223.847046,286.522522 221.956818,287.382751 
	C217.844040,289.254395 215.906738,294.620544 218.812866,297.258728 
	C224.587753,302.501129 224.625946,309.076233 225.121613,315.948578 
	C225.779694,325.072784 228.768448,333.405548 237.500153,337.945282 
	C250.502609,344.705353 267.694519,334.332031 268.943481,319.144501 
	C269.256622,315.336853 269.247498,311.491577 269.183655,307.666962 
	C269.111603,303.350433 270.029053,300.363190 275.242920,299.729095 
	C276.999756,299.515442 279.747070,296.622314 279.704132,295.016266 
	C279.642548,292.712769 277.896423,289.911835 276.014954,288.357880 
	C274.269318,286.916138 271.402313,286.832123 269.194458,285.406281 
	C271.618073,274.080292 278.534851,265.468079 285.772217,256.864868 
	C288.980255,253.051361 291.702118,248.291031 293.002045,243.513550 
	C296.536316,230.524948 292.209351,218.635208 286.247192,207.209183 
	C273.772064,183.301605 247.005554,175.046341 223.969559,189.061157 
	C201.894653,202.491241 196.531860,220.661942 206.974411,242.573486 
	C209.823959,248.552673 213.634262,254.068008 216.620926,259.989258 
	C220.941330,268.554718 224.913101,277.295990 228.234253,286.135406 
M346.790527,327.680267 
	C342.149109,328.640503 337.507690,329.600769 332.542328,330.628052 
	C332.542328,338.114410 332.542328,346.017914 332.542328,355.065979 
	C342.218323,354.470978 351.685455,354.464691 360.966125,353.146301 
	C369.238129,351.971222 375.291687,346.629791 378.093872,338.733765 
	C380.064148,333.181915 381.696014,327.211578 381.874725,321.378967 
	C382.384491,304.739594 382.075684,288.075134 382.086548,271.420532 
	C382.094482,259.230927 383.942566,256.878021 395.626587,254.417282 
	C395.626587,248.696259 395.626587,242.931702 395.626587,237.229614 
	C382.807373,233.318497 382.099243,232.314133 382.083801,218.565079 
	C382.064911,201.744186 382.298889,184.917053 381.915527,168.104187 
	C381.522583,150.872391 372.692230,139.559937 357.572235,137.592026 
	C349.440948,136.533722 341.058685,137.403870 332.294342,137.403870 
	C332.294342,141.429672 332.294312,145.388565 332.294312,149.347473 
	C332.294312,153.449295 332.294342,157.551117 332.294342,161.698944 
	C334.010773,161.798828 335.015137,161.992554 335.989655,161.893372 
	C347.626831,160.708786 352.711700,167.159134 352.396118,178.303284 
	C351.981445,192.947662 352.366913,207.613113 352.269379,222.268600 
	C352.204987,231.943100 354.546967,240.352127 364.156311,245.732971 
	C354.105377,251.307846 352.158875,260.224731 352.256378,270.240295 
	C352.402283,285.228088 352.259094,300.218475 352.308929,315.207520 
	C352.324585,319.916718 351.377136,324.139221 346.790527,327.680267 
M148.894409,231.097000 
	C149.096298,220.277145 149.344894,209.457901 149.484619,198.637238 
	C149.587860,190.642014 149.319138,182.635818 149.636719,174.651245 
	C149.973343,166.187393 154.597580,162.018829 163.026794,161.916016 
	C164.996857,161.891998 166.967468,161.912460 169.213684,161.912460 
	C169.213684,153.437454 169.213684,145.355316 169.213684,137.141815 
	C161.277985,137.141815 153.587875,136.650742 145.985199,137.256668 
	C134.520996,138.170380 126.113213,144.034912 122.669624,155.288467 
	C120.992607,160.768890 120.071404,166.665482 119.942070,172.399261 
	C119.581490,188.384949 119.819572,204.383987 119.809494,220.377762 
	C119.802162,232.013870 118.019180,234.274796 106.992416,236.765472 
	C106.717110,236.827667 106.506790,237.177612 106.365891,237.303955 
	C106.365891,243.178070 106.365891,248.954178 106.365891,254.679688 
	C116.940308,256.127106 119.755844,259.309906 119.803467,269.764435 
	C119.886177,287.922791 119.606567,306.089661 120.078972,324.237335 
	C120.487221,339.920532 128.580811,351.090637 141.748383,353.382843 
	C150.632339,354.929352 159.863892,354.479156 169.205399,354.935120 
	C169.338760,352.522003 169.483276,351.063416 169.489014,349.604309 
	C169.514420,343.133301 169.500015,336.662140 169.500015,330.069275 
	C168.076736,329.907959 167.108246,329.725433 166.135498,329.698975 
	C152.909683,329.339233 149.514633,325.834167 149.502960,312.441223 
	C149.491364,299.113068 149.351639,285.782776 149.547028,272.457489 
	C149.703735,261.770020 148.848465,251.676102 137.659195,245.776855 
	C143.621368,242.289017 147.135681,237.831573 148.894409,231.097000 
M300.401276,184.970886 
	C295.989441,187.214828 291.577606,189.458786 287.165771,191.702728 
	C287.396698,192.137985 287.627625,192.573242 287.858582,193.008499 
	C299.830444,191.528458 307.904266,181.428101 319.062073,178.106583 
	C319.492767,177.978378 319.522919,176.504654 320.008484,174.608231 
	C312.260834,176.593063 306.877838,181.061752 300.401276,184.970886 
M312.261993,236.919449 
	C308.981354,237.383011 305.700745,237.846558 301.216034,238.480270 
	C306.369965,241.753052 327.145599,238.829208 330.127045,234.270996 
	C324.463135,235.121201 318.799255,235.971390 312.261993,236.919449 
M174.022308,236.170105 
	C173.074600,236.752518 172.126907,237.334930 170.560806,238.297379 
	C176.235229,239.789124 191.956696,236.271500 194.475159,232.377289 
	C187.253754,233.720001 181.014801,234.880051 174.022308,236.170105 
M200.454224,165.971558 
	C205.526459,170.729385 209.903152,176.327545 215.905548,179.822983 
	C210.121170,173.726990 204.336792,167.630997 198.552399,161.534988 
	C198.277878,161.732803 198.003342,161.930634 197.728806,162.128448 
	C198.471313,163.238235 199.213821,164.348007 200.454224,165.971558 
M261.858826,174.208099 
	C261.858826,175.350967 261.858826,176.493835 261.858826,177.636703 
	C262.410919,177.723633 262.963013,177.810577 263.515106,177.897522 
	C265.661652,172.563477 267.808228,167.229431 269.954773,161.895386 
	C269.131592,161.538437 268.308411,161.181488 267.485229,160.824554 
	C265.685547,165.049469 263.885895,169.274399 261.858826,174.208099 
M238.316162,174.019501 
	C236.999512,170.798645 235.682861,167.577774 234.124191,163.764862 
	C232.322723,167.227173 234.592926,175.750732 236.966507,176.615356 
	C237.241837,176.715637 238.043991,175.369690 238.316162,174.019501 
M198.087311,199.066467 
	C194.623795,198.287247 191.160278,197.508026 187.696762,196.728806 
	C187.503006,197.540924 187.309250,198.353043 187.115494,199.165161 
	C190.767044,200.078735 194.416946,200.999786 198.092941,201.801254 
	C198.130295,201.809402 198.511627,200.239883 198.087311,199.066467 
M277.635956,171.686203 
	C275.446747,174.452820 273.257538,177.219437 271.068298,179.986053 
	C271.726898,180.492996 272.385498,180.999939 273.044098,181.506866 
	C275.171021,178.659866 277.315155,175.825012 279.363647,172.922668 
	C279.448273,172.802780 278.636108,172.049911 277.635956,171.686203 
M303.453186,218.948242 
	C303.592346,219.925980 303.731506,220.903732 303.870667,221.881485 
	C306.277008,220.854736 308.701263,219.865402 311.057343,218.734055 
	C311.257416,218.637985 311.002319,217.593994 310.958679,216.990372 
	C308.821472,217.459976 306.683624,217.926880 304.548279,218.404755 
	C304.392303,218.439667 304.254181,218.554337 303.453186,218.948242 
M288.791351,266.714752 
	C290.548492,269.856689 296.781647,269.834351 299.892517,266.216980 
	C296.144745,266.216980 292.779907,266.216980 288.791351,266.714752 
M204.339111,268.849060 
	C205.955475,267.737518 207.571838,266.625977 209.188202,265.514465 
	C208.816986,264.953125 208.445786,264.391815 208.074585,263.830505 
	C204.977631,265.659668 201.880661,267.488861 198.783707,269.318024 
	C199.121094,269.945038 199.458481,270.572021 199.795868,271.199036 
	C201.093842,270.536407 202.391815,269.873779 204.339111,268.849060 
z"/>
<path fill="#38B4FC" opacity="1.000000" stroke="none" 
	d="
M347.095184,327.422729 
	C351.377136,324.139221 352.324585,319.916718 352.308929,315.207520 
	C352.259094,300.218475 352.402283,285.228088 352.256378,270.240295 
	C352.158875,260.224731 354.105377,251.307846 364.156311,245.732971 
	C354.546967,240.352127 352.204987,231.943100 352.269379,222.268600 
	C352.366913,207.613113 351.981445,192.947662 352.396118,178.303284 
	C352.711700,167.159134 347.626831,160.708786 335.989655,161.893372 
	C335.015137,161.992554 334.010773,161.798828 332.294342,161.698944 
	C332.294342,157.551117 332.294312,153.449295 332.294312,149.347473 
	C332.294312,145.388565 332.294342,141.429672 332.294342,137.403870 
	C341.058685,137.403870 349.440948,136.533722 357.572235,137.592026 
	C372.692230,139.559937 381.522583,150.872391 381.915527,168.104187 
	C382.298889,184.917053 382.064911,201.744186 382.083801,218.565079 
	C382.099243,232.314133 382.807373,233.318497 395.626587,237.229614 
	C395.626587,242.931702 395.626587,248.696259 395.626587,254.417282 
	C383.942566,256.878021 382.094482,259.230927 382.086548,271.420532 
	C382.075684,288.075134 382.384491,304.739594 381.874725,321.378967 
	C381.696014,327.211578 380.064148,333.181915 378.093872,338.733765 
	C375.291687,346.629791 369.238129,351.971222 360.966125,353.146301 
	C351.685455,354.464691 342.218323,354.470978 332.542328,355.065979 
	C332.542328,346.017914 332.542328,338.114410 332.542328,330.628052 
	C337.507690,329.600769 342.149109,328.640503 347.095184,327.422729 
z"/>
<path fill="#38B5FE" opacity="1.000000" stroke="none" 
	d="
M148.807892,231.500565 
	C147.135681,237.831573 143.621368,242.289017 137.659195,245.776855 
	C148.848465,251.676102 149.703735,261.770020 149.547028,272.457489 
	C149.351639,285.782776 149.491364,299.113068 149.502960,312.441223 
	C149.514633,325.834167 152.909683,329.339233 166.135498,329.698975 
	C167.108246,329.725433 168.076736,329.907959 169.500015,330.069275 
	C169.500015,336.662140 169.514420,343.133301 169.489014,349.604309 
	C169.483276,351.063416 169.338760,352.522003 169.205399,354.935120 
	C159.863892,354.479156 150.632339,354.929352 141.748383,353.382843 
	C128.580811,351.090637 120.487221,339.920532 120.078972,324.237335 
	C119.606567,306.089661 119.886177,287.922791 119.803467,269.764435 
	C119.755844,259.309906 116.940308,256.127106 106.365891,254.679688 
	C106.365891,248.954178 106.365891,243.178070 106.365891,237.303955 
	C106.506790,237.177612 106.717110,236.827667 106.992416,236.765472 
	C118.019180,234.274796 119.802162,232.013870 119.809494,220.377762 
	C119.819572,204.383987 119.581490,188.384949 119.942070,172.399261 
	C120.071404,166.665482 120.992607,160.768890 122.669624,155.288467 
	C126.113213,144.034912 134.520996,138.170380 145.985199,137.256668 
	C153.587875,136.650742 161.277985,137.141815 169.213684,137.141815 
	C169.213684,145.355316 169.213684,153.437454 169.213684,161.912460 
	C166.967468,161.912460 164.996857,161.891998 163.026794,161.916016 
	C154.597580,162.018829 149.973343,166.187393 149.636719,174.651245 
	C149.319138,182.635818 149.587860,190.642014 149.484619,198.637238 
	C149.344894,209.457901 149.096298,220.277145 148.807892,231.500565 
z"/>
<path fill="#FCE973" opacity="1.000000" stroke="none" 
	d="
M229.033600,285.962280 
	C224.913101,277.295990 220.941330,268.554718 216.620926,259.989258 
	C213.634262,254.068008 209.823959,248.552673 206.974411,242.573486 
	C196.531860,220.661942 201.894653,202.491241 223.969559,189.061157 
	C247.005554,175.046341 273.772064,183.301605 286.247192,207.209183 
	C292.209351,218.635208 296.536316,230.524948 293.002045,243.513550 
	C291.702118,248.291031 288.980255,253.051361 285.772217,256.864868 
	C278.534851,265.468079 271.618073,274.080292 268.640533,285.785461 
	C255.068939,286.097168 242.051270,286.029724 229.033600,285.962280 
M241.922577,278.248322 
	C239.627563,265.149994 237.220978,252.069809 235.087524,238.945221 
	C234.111786,232.942642 234.841461,232.456924 240.446152,233.364334 
	C241.307724,236.098694 241.558502,238.977402 243.040039,240.915070 
	C244.156372,242.375076 246.849503,242.629486 248.840744,243.420532 
	C249.500153,241.524124 250.876617,239.534485 250.645081,237.753952 
	C250.325439,235.295898 248.793060,232.995560 247.487793,229.944366 
	C250.356674,229.944366 252.802322,229.944366 254.684402,229.944366 
	C254.684402,233.470123 254.073196,236.690613 254.929932,239.456390 
	C255.391418,240.946136 258.367828,241.656845 260.209534,242.719055 
	C261.079102,240.921295 262.412720,239.188538 262.676422,237.305908 
	C262.901215,235.701370 261.895264,233.924454 261.053986,230.824356 
	C264.540283,231.930359 267.730530,232.091980 269.310974,233.769852 
	C270.226624,234.741928 268.706573,238.201736 268.012421,240.458878 
	C266.225830,246.268097 263.858521,251.934525 262.533600,257.839813 
	C261.228943,263.654938 260.862762,269.687347 260.222290,275.639160 
	C260.094513,276.826538 260.587463,278.080688 260.794220,279.304047 
	C261.301758,279.297302 261.809296,279.290558 262.316833,279.283813 
	C262.596161,277.943573 262.930725,276.612152 263.146118,275.261719 
	C265.172211,262.559143 264.837372,249.390610 272.197418,237.830231 
	C274.941986,233.519379 271.583344,229.467896 265.811218,228.925049 
	C263.065094,228.666763 260.039825,229.070267 257.630432,228.034988 
	C253.101273,226.088821 249.084747,225.909576 244.890274,228.637985 
	C243.745880,229.382355 242.184158,229.703888 240.784729,229.801880 
	C231.710663,230.437454 230.760437,231.576141 232.309280,240.534561 
	C234.574768,253.637985 236.847580,266.740234 239.174713,279.832764 
	C239.437637,281.312042 240.071060,282.725433 240.532700,284.169373 
	C241.025528,284.100677 241.518372,284.031982 242.011200,283.963287 
	C242.011200,282.326355 242.011200,280.689392 241.922577,278.248322 
z"/>
<path fill="#BCDADB" opacity="1.000000" stroke="none" 
	d="
M228.633926,286.048828 
	C242.051270,286.029724 255.068939,286.097168 268.557831,286.157440 
	C271.402313,286.832123 274.269318,286.916138 276.014954,288.357880 
	C277.896423,289.911835 279.642548,292.712769 279.704132,295.016266 
	C279.747070,296.622314 276.999756,299.515442 275.242920,299.729095 
	C270.029053,300.363190 269.111603,303.350433 269.183655,307.666962 
	C269.247498,311.491577 269.256622,315.336853 268.943481,319.144501 
	C267.694519,334.332031 250.502609,344.705353 237.500153,337.945282 
	C228.768448,333.405548 225.779694,325.072784 225.121613,315.948578 
	C224.625946,309.076233 224.587753,302.501129 218.812866,297.258728 
	C215.906738,294.620544 217.844040,289.254395 221.956818,287.382751 
	C223.847046,286.522522 226.129608,286.524445 228.633926,286.048828 
z"/>
<path fill="#252F7E" opacity="1.000000" stroke="none" 
	d="
M300.719604,184.788467 
	C306.877838,181.061752 312.260834,176.593063 320.008484,174.608231 
	C319.522919,176.504654 319.492767,177.978378 319.062073,178.106583 
	C307.904266,181.428101 299.830444,191.528458 287.858582,193.008499 
	C287.627625,192.573242 287.396698,192.137985 287.165771,191.702728 
	C291.577606,189.458786 295.989441,187.214828 300.719604,184.788467 
z"/>
<path fill="#252E7B" opacity="1.000000" stroke="none" 
	d="
M312.698669,236.870514 
	C318.799255,235.971390 324.463135,235.121201 330.127045,234.270996 
	C327.145599,238.829208 306.369965,241.753052 301.216034,238.480270 
	C305.700745,237.846558 308.981354,237.383011 312.698669,236.870514 
z"/>
<path fill="#252E7B" opacity="1.000000" stroke="none" 
	d="
M174.399078,236.105103 
	C181.014801,234.880051 187.253754,233.720001 194.475159,232.377289 
	C191.956696,236.271500 176.235229,239.789124 170.560806,238.297379 
	C172.126907,237.334930 173.074600,236.752518 174.399078,236.105103 
z"/>
<path fill="#263183" opacity="1.000000" stroke="none" 
	d="
M200.205276,165.714676 
	C199.213821,164.348007 198.471313,163.238235 197.728806,162.128448 
	C198.003342,161.930634 198.277878,161.732803 198.552399,161.534988 
	C204.336792,167.630997 210.121170,173.726990 215.905548,179.822983 
	C209.903152,176.327545 205.526459,170.729385 200.205276,165.714676 
z"/>
<path fill="#252E7B" opacity="1.000000" stroke="none" 
	d="
M261.972534,173.853714 
	C263.885895,169.274399 265.685547,165.049469 267.485229,160.824554 
	C268.308411,161.181488 269.131592,161.538437 269.954773,161.895386 
	C267.808228,167.229431 265.661652,172.563477 263.515106,177.897522 
	C262.963013,177.810577 262.410919,177.723633 261.858826,177.636703 
	C261.858826,176.493835 261.858826,175.350967 261.972534,173.853714 
z"/>
<path fill="#252E7B" opacity="1.000000" stroke="none" 
	d="
M238.459045,174.356873 
	C238.043991,175.369690 237.241837,176.715637 236.966507,176.615356 
	C234.592926,175.750732 232.322723,167.227173 234.124191,163.764862 
	C235.682861,167.577774 236.999512,170.798645 238.459045,174.356873 
z"/>
<path fill="#252E7B" opacity="1.000000" stroke="none" 
	d="
M198.409851,199.236679 
	C198.511627,200.239883 198.130295,201.809402 198.092941,201.801254 
	C194.416946,200.999786 190.767044,200.078735 187.115494,199.165161 
	C187.309250,198.353043 187.503006,197.540924 187.696762,196.728806 
	C191.160278,197.508026 194.623795,198.287247 198.409851,199.236679 
z"/>
<path fill="#252E7B" opacity="1.000000" stroke="none" 
	d="
M277.938843,171.639069 
	C278.636108,172.049911 279.448273,172.802780 279.363647,172.922668 
	C277.315155,175.825012 275.171021,178.659866 273.044098,181.506866 
	C272.385498,180.999939 271.726898,180.492996 271.068298,179.986053 
	C273.257538,177.219437 275.446747,174.452820 277.938843,171.639069 
z"/>
<path fill="#252E7B" opacity="1.000000" stroke="none" 
	d="
M303.780457,218.790070 
	C304.254181,218.554337 304.392303,218.439667 304.548279,218.404755 
	C306.683624,217.926880 308.821472,217.459976 310.958679,216.990372 
	C311.002319,217.593994 311.257416,218.637985 311.057343,218.734055 
	C308.701263,219.865402 306.277008,220.854736 303.870667,221.881470 
	C303.731506,220.903732 303.592346,219.925980 303.780457,218.790070 
z"/>
<path fill="#252E7B" opacity="1.000000" stroke="none" 
	d="
M289.103210,266.465881 
	C292.779907,266.216980 296.144745,266.216980 299.892517,266.216980 
	C296.781647,269.834351 290.548492,269.856689 289.103210,266.465881 
z"/>
<path fill="#252E7B" opacity="1.000000" stroke="none" 
	d="
M204.014450,269.030090 
	C202.391815,269.873779 201.093842,270.536407 199.795868,271.199036 
	C199.458481,270.572021 199.121094,269.945038 198.783707,269.318024 
	C201.880661,267.488861 204.977631,265.659668 208.074585,263.830505 
	C208.445786,264.391815 208.816986,264.953125 209.188202,265.514465 
	C207.571838,266.625977 205.955475,267.737518 204.014450,269.030090 
z"/>
<path fill="#3A4489" opacity="1.000000" stroke="none" 
	d="
M241.966888,278.650391 
	C242.011200,280.689392 242.011200,282.326355 242.011200,283.963287 
	C241.518372,284.031982 241.025528,284.100677 240.532700,284.169373 
	C240.071060,282.725433 239.437637,281.312042 239.174713,279.832764 
	C236.847580,266.740234 234.574768,253.637985 232.309280,240.534561 
	C230.760437,231.576141 231.710663,230.437454 240.784729,229.801880 
	C242.184158,229.703888 243.745880,229.382355 244.890274,228.637985 
	C249.084747,225.909576 253.101273,226.088821 257.630432,228.034988 
	C260.039825,229.070267 263.065094,228.666763 265.811218,228.925049 
	C271.583344,229.467896 274.941986,233.519379 272.197418,237.830231 
	C264.837372,249.390610 265.172211,262.559143 263.146118,275.261719 
	C262.930725,276.612152 262.596161,277.943573 262.316833,279.283813 
	C261.809296,279.290558 261.301758,279.297302 260.794220,279.304047 
	C260.587463,278.080688 260.094513,276.826538 260.222290,275.639160 
	C260.862762,269.687347 261.228943,263.654938 262.533600,257.839813 
	C263.858521,251.934525 266.225830,246.268097 268.012421,240.458878 
	C268.706573,238.201736 270.226624,234.741928 269.310974,233.769852 
	C267.730530,232.091980 264.540283,231.930359 261.053986,230.824356 
	C261.895264,233.924454 262.901215,235.701370 262.676422,237.305908 
	C262.412720,239.188538 261.079102,240.921295 260.209534,242.719055 
	C258.367828,241.656845 255.391418,240.946136 254.929932,239.456390 
	C254.073196,236.690613 254.684402,233.470123 254.684402,229.944366 
	C252.802322,229.944366 250.356674,229.944366 247.487793,229.944366 
	C248.793060,232.995560 250.325439,235.295898 250.645081,237.753952 
	C250.876617,239.534485 249.500153,241.524124 248.840759,243.420532 
	C246.849503,242.629486 244.156372,242.375076 243.040039,240.915070 
	C241.558502,238.977402 241.307724,236.098694 240.446152,233.364334 
	C234.841461,232.456924 234.111786,232.942642 235.087524,238.945221 
	C237.220978,252.069809 239.627563,265.149994 241.966888,278.650391 
z"/>
</svg>